<?xml version="1.0" encoding="UTF-8" standalone="no"?><svg xmlns="http://www.w3.org/2000/svg" xmlns:xlink="http://www.w3.org/1999/xlink" fill="#fffefe" height="409" preserveAspectRatio="xMidYMid meet" version="1" viewBox="26.0 61.7 424.5 409.0" width="424.5" zoomAndPan="magnify"><g id="change1_1"><path clip-rule="evenodd" d="M430.648,63.684c-0.586,0.585-1.714,0.412-1.91-0.391 C428.587,61.731,431.082,62.23,430.648,63.684L430.648,63.684z M106.314,401.489c-0.174-0.521-0.586-0.824-0.782-1.345 c-0.933,0.087-0.78,1.258-2.104,0.954c-0.369-0.867-0.76-1.67-0.955-2.69c0.282-0.477,0.672-0.867,1.149-1.149 c0.108-0.759-0.52-0.781-0.39-1.54c-2.04,0.435-1.628,3.037-4.036,3.471c0.174-1.627,0.738-2.863,2.3-3.08 c-0.348-0.716-0.912-1.583,0-2.126c-0.086-0.435-1.042,0.021-0.955-0.564c-0.152-1.322,0.846-1.453,1.345-2.125 c-0.13-0.716-0.217-1.454-0.39-2.127c-0.629-0.13-1.648,1.671-2.885,0.977c-0.239-1.497,0.521-3.579,2.32-3.666 c-0.347-2.799-0.933-5.337-1.17-8.265c-0.369-0.326-1.801,0.715-2.3-0.196c0-1.54,1.172-1.908,1.931-2.689 c-0.173-1.193-0.369-2.321-0.39-3.645c-1.237,0.109-0.565,1.172-0.391,1.909c-0.673,0.477-1.042,1.258-1.931,1.54 c-0.391-0.911-0.109-2.277,0-3.275c-0.672-1.215-2.257-1.562-2.104-3.645c0.911-0.217,0.672,0.737,1.149,0.954 c0.413-1.301,0.542-3.449,0-4.229c-1.345,0.716-1.54,2.56-3.449,2.689c-0.694-1.302-1.041-2.95-2.126-3.839 c-0.043-0.63,0.694-0.456,0.955-0.76c0.087-0.89-0.196-2.126,0.195-2.712c1.063-0.477,1.887,0.434,2.517,0.977 c0.173,1.215-1.172,0.89-1.541,1.54c-0.238,1.193,0.282,1.627,0.564,2.299c2.299-0.434,0.477-4.945,2.495-5.184 c1.106-0.131,1.259,0.672,1.735,1.54c0.542-0.998-0.239-2.321-0.39-3.276c-1.15,0.76-2.625,0.934-4.036,0.76 c-0.043-2.43,2.169-2.43,2.126-4.426c-1.735-1.02-5.228-5.38-1.93-6.725c0.586,0.391,0.586,0.76,0.39,1.54 c0.303-0.391,1.172-0.238,1.54-0.586c-0.542-0.064-1.713-0.043-1.344-1.54c-1.389-0.26-1.692,1.172-2.69,0.195 c1.627-1.583-0.347-5.684,1.54-7.115c-0.694-0.521-1.193-1.259-2.321-1.345c0.282-1.649-0.347-1.258-0.954-1.931 c0.39-0.543,0.738-0.607,0.39-1.519c-0.151-0.391-0.716,1.02-1.171,0.368c0.152-1.084,0.608-2.689-0.954-2.885 c-0.152-0.781,0.65-1.215,1.149-0.759c-0.434-0.716-1.562-1.324-0.955-2.495c-0.889,0.108-1.237-0.304-1.93-0.391 c0.021-0.651-0.803-1.497-0.391-1.931c0.847-0.694,0.261,1.323,1.171,1.149c1.193-0.781,2.321-1.648,2.495-3.449 c-0.324,0-0.65,0-0.954,0c-0.825,0.456,0.716,0.803-0.196,1.541c-1.02,0.194-1.02-0.022-1.735-0.392c1.888-1.8,0.564-3.752,0-5.965 c-0.108-0.217-0.933,0.151-1.345-0.195c-0.477-1.15-0.043-2.625,0.955-2.886c0.238-3.059-2.3-3.34-2.3-6.16 c0.13-0.89,1.02-1.021,1.541-1.519c-0.413-0.195-1.845,0.217-2.321-0.391c-0.217-1.388,0.563-1.757,1.345-2.126 c-0.759-0.759-2.538-0.521-3.254-1.345c-0.542-0.803-0.608-2.886,0.195-3.449c0.955-0.195,1.02,1.279,1.909,0.563 c-2.017-3.428-3.882-8.677-4.621-14.035c-1.432-0.021-3.037-1.106-1.909-2.495c1.019-0.324,0.607,0.803,1.54,0.564 c1.692-1.41-0.651-4.317-0.781-6.334c-0.39-0.044-1.02,0.26-1.345-0.586c-0.369-1.063,0.738-0.673,0.782-1.345 c-0.043-0.868-1.411-0.413-1.541-1.15c-0.521-0.607,0.521-0.89,0.759-1.345c-0.217-0.607-1.193-0.478-1.345-1.172 c-0.043-0.976,0.651-0.021,0.782-0.759c-0.391-1.149-0.738-2.364-1.367-3.275c-0.933-7.333-3.818-13.537-5.38-20.587 c-0.26-0.543-1.106-0.543-1.345-1.15c-0.65-6.421-2.907-11.519-4.989-16.725c-3.493-8.72-7.441-17.854-11.171-27.116 c-0.803-2.04-1.432-4.534-2.3-5.207c-0.911-0.694-2.538-0.976-3.666-1.54c-6.747-3.428-12.692-7.918-14.231-16.921 c-0.021-0.759-0.933-0.607-0.955-1.345c0.456-0.759,1.042-1.388,0.955-2.689c0.174-0.824-1.258-0.022-1.149-0.781 c1.28-0.716,1.756-2.213,2.299-3.644c-0.173-0.412-0.868-0.261-1.323-0.499c-0.391,1.345-2.799,0.521-2.474-0.889 c0.173-0.13,0.283-0.347,0.391-0.564c0.716,0.108,1.323,0.326,1.713,0.738c0.369-1.519,2.994-0.803,3.427-2.256 c-0.064-0.629-0.542-0.846-0.368-1.735c-0.716,0.152-0.455,1.236-1.367,1.171c-1.345-0.26-1.735-1.454-3.058-1.735 c0.607-2.582,3.297,1.54,4.034-0.977c0.869,0.109,1.085,0.846,1.91,0.977c1.02,0.043,1.02-0.911,1.735-1.15 c-1.041-0.456-1.583-2.147-0.564-3.081c2.343,0.195,2.821-1.692,4.6-2.516c0.086-0.781-0.629-0.759-0.37-1.714 c0.803-0.217,0.739,0.391,1.345,0.369c0.477,0.933-0.824,2.234,0.39,2.885c0.456-0.39,0.803-1.301,1.215-2.169 c-0.13,0.022-0.26,0.044-0.413,0.022c-0.086-0.152-0.173-0.325-0.39-0.369c-0.195-0.977,0.868-1.389,1.584-1.042 c0.347-0.456,0.759-0.716,1.258-0.672c0.802,0.087,1.063,0.304,1.15,1.345c0.542-0.304,0.585-1.085,1.541-0.955 c1.345-0.108,0.889,1.562,1.931,1.736c0.151-0.13-0.109-1.128,0.107-1.648c-0.499,0.173-1.193-0.022-1.41-0.5 c-0.086-1.171,1.28-1.388,1.909-0.781c0.13,0.456,0.065,0.781-0.086,0.998c2.125-0.043,2.755,1.388,4.295,1.931 c0.803,0.152,0.044-1.28,0.651-1.345c-0.086,0-0.152-0.021-0.238-0.043c-0.065-0.781,0.065-1.323,0.781-1.345 c0.477,0.325,0.369,1.345-0.456,1.388h0.021c1.258-0.043,0.934,1.519,1.931,1.736c-0.151-1.193-1.171-2.148-0.954-3.081 c1.388-0.651,2.212,0.803,3.254,1.15c-0.435,0.585-0.629,1.41-0.955,2.104c1.497,0.564,3.276,0.824,4.426,1.735 c0.586-0.043,0.325-0.955,1.149-0.759c-0.39,1.215,0.173,1.475,0.955,1.909c0.434-0.13-0.022-1.172,0.78-0.955 c-0.065,0.803,0.933,1.236,0.39,1.931c2.452,2.083,5.163,3.905,6.92,6.92c0.694,1.171,0.933,2.863,1.735,3.666 c0.651,0.629,2.647,1.041,4.23,1.713c9.458,4.057,19.199,8.612,27.876,13.472c10.001,5.597,19.589,12.452,28.852,18.266 c4.773,2.994,9.653,6.052,14.057,9.632c4.361,3.536,8.591,7.332,13.277,10.196c7.093,4.339,13.103,10.391,19.415,15.966 c3.514,3.103,7.094,5.401,9.242,9.806c1.627-1.822-1.996-3.211-0.586-4.816c0.999,0.022,0.737,0.998,0.586,1.735 c1.106-0.824,0.499-3.34,0.954-4.815c-1.583-1.735,0.065-3.059,0.391-4.989c-0.456-0.977-1.975,0.217-2.126-1.15 c1.128-0.021,1.301-0.846,2.321-1.735c-0.563-0.39-1.735-0.195-2.321-0.586c-0.108-0.824,0.152-1.279,0.195-1.93 c0.672,0.629,0.868,0.151,1.735,0c-0.304-0.847-1.063-1.236-1.345-2.104c0.282-0.673,0.695-1.215,1.15-1.736 c-0.021-0.868-0.759-1.041-0.564-2.104c0.347-0.846,1.562-0.325,2.104-0.585c0.195-1.106-0.955-0.608-0.955-1.736 c-0.021-1.171,2.04-1.779,1.15-3.449c-0.238,1.475-1.909,2.473-2.126,4.035c-0.716-0.13-0.693-1.193-0.173-1.54 c-0.369-0.738-1.302-0.89-1.171-2.126c0.478-0.282,0.759-0.456,1.345-0.195c0.239-1.041,0-0.998-0.173-1.909 c-0.304,0.933-2.062,1.302-2.885,0.564c-0.196-1.735,2.039-1.801,2.885-0.954c0.629-1.541-0.759-2.04-1.366-2.886 c0.043-1.497,1.8-1.28,1.54-3.08c-0.325-0.477-1.605,0.434-2.104-0.195c0.108-1.084,1.822-0.759,2.3-0.955 c0.152-1.909,0.65-3.449,1.345-4.816c-1.02-1.844-1.345-5.9,0.194-7.679c0.456-0.521,1.237-0.434,1.541-1.171 c-0.586-0.304-1.584-0.217-1.931-0.759c-0.195-1.735,0.217-4.838,1.367-6.356c1.605-0.174,1.237,1.67,1.345,2.516 c0.434-0.39,0.065-1.605,0.173-2.321c-1.669-0.672-2.711-4.599-1.345-5.965c0.585,0,0.195,0.976,0.781,0.976 c0.889-1.063-0.889-1.128-1.149-2.126c-0.456,0.716,0,2.321-1.172,2.321c-0.413-0.998-0.563-2.278-1.149-3.081 c1.193,0.391,0.998-0.347,1.93-0.585c0.022-1.822-0.173-3.905,0.391-5.185c-0.239-0.673-1.237-0.564-1.172-1.541 c0.803-0.889,1.975-1.367,3.471-1.54c-0.412-1.953-0.91-2.885-2.104-4.23c0.304-1.042,0.26-2.495-0.391-3.081 c0.651-0.629,0.803-1.757,0.955-2.885c0.303-0.282,1.431-0.282,1.735,0c0.282-1.454-0.846-1.475-0.586-2.885 c-0.651-0.304-1.758-0.174-1.909-0.976c0.26-1.953,1.323-3.146,1.909-4.794c-0.347-0.542-1.367-0.434-1.541-1.15 c0.803-1.301,0.673-2.342,0.585-4.425c0.651-0.955,1.281-1.931,1.736-3.081c-0.391-0.391-1.214-0.347-1.345-0.976 c0.195-1.67,1.649-3.58,0.759-4.599c-0.13-1.042,1.042-0.759,0.781-1.931c-0.043-0.781-1.259-0.413-1.172-1.345 c0.977-1.193,2.321-3.406,0.586-4.621c0.391-1.583,1.085-1.887,0.391-2.885c0.043-1.107,1.171-1.128,1.345-2.105 c-0.477-0.303-1.193-0.347-1.345-0.976c0.065-0.89,0.759-1.15,1.541-1.345c-0.89-1.648,0.846-3.428,0-5.575 c-0.173-0.607,0.282-0.607,0.563-0.759c-0.043-0.803-1.128-0.542-0.759-1.735c0.391-0.391,0.369-1.063,1.15-0.586 c0.087-0.889,0.261-1.28,0-2.104c1.91-9.48,5.488-18.309,15.966-19.632c5.207-0.651,8.635,2.169,12.301,4.621 c3.167,2.104,5.684,3.536,8.092,5.77c2.451,2.256,4.555,4.794,6.919,6.92c7.138,6.421,13.516,13.971,19.242,21.932 c3.905,5.423,8.07,10.565,11.736,15.771c3.904,5.596,6.963,11.454,11.15,16.551c12.257,14.925,24.448,30.826,35.967,46.554 c5.163-10.999,10.37-21.671,15.771-32.127c2.603-5.055,6.053-9.805,9.046-14.816c2.972-4.99,6.096-9.979,9.415-14.426 c3.405-4.534,7.181-8.916,10.586-13.472c3.449-4.577,6.855-9.046,10.586-13.276c7.463-8.482,13.646-18.049,22.301-25.381 c-0.086-0.694-0.304-1.106,0-1.735c3.059-0.217,3.124-3.428,5.575-4.23c-0.087-1.8,2.126-1.974,1.931-4.035 c0.977-0.195,1.323-0.998,1.931-1.54c0.998-0.13,1.778,0.542,2.3-0.195c-0.455-0.478-0.933-1.735-0.195-2.3 c1.149-0.303,0.998,0.673,1.931,0.564c1.691-0.716,1.345-1.258,0.78-2.885c0.651-0.868,1.845-0.456,2.886-0.195 c0.694-1.15-0.435-1.953-0.976-2.495c0.78-0.521,1.322-1.258,2.19-1.67c0.021-0.065,0.064-0.108,0.087-0.13 c-0.521-1.866,0.759-3.059,0.607-4.534c0.954,0.109,1.084-0.585,2.321-0.585c-0.087-0.369-0.261-0.651-0.325-0.933 c-0.021,0.043-0.021,0.087-0.044,0.13c-2.061,0.108-0.542-2.212,0.261-0.998c0.586-0.368,1.149-0.26,1.865-0.173 c0-0.043,0-0.108,0-0.173c0.173-0.152,0.412-0.217,0.629-0.195c0.044-0.238,0.087-0.542,0.304-0.738 c0.607,0.044,0.803-0.347,1.54-0.195c0.781-1.714,2.777-2.212,3.84-3.645c2.234,0.672,4.014-0.022,6.53,0 c0.759,0.108,0.499-0.803,0.976-0.976c1.02-0.109,0.911,0.889,1.54,1.171c0.305,0.043,0.586,0.131,0.89,0.196 c0.348-0.478,1.215-0.542,1.844-0.239c0.044,0.325,0.174,0.542,0.195,0.889c6.031,2.256,10.109,7.376,9.957,14.535 c-0.217,8.829-6.183,13.45-12.517,16.356c-0.261,3.297,0,7.159-1.909,8.851c-0.195,15.944-0.043,32.756-1.345,48.267 c-1.583,18.743-1.042,38.375-1.931,57.704c-0.933,20.565,0.65,39.72,1.54,58.68c0.673,14.383,1.497,28.635,3.471,41.933 c0.521,3.645,0.89,6.508,2.3,9.22c1.453,2.776,2.039,5.684,2.886,8.852c0.846,3.166,2.386,5.986,2.689,8.85 c1.236,11.649-7.051,19.568-18.07,18.656c-7.918-0.65-12.235-5.771-15.207-12.104c-20.153-6.79-47.92-6.963-73.475-7.701 c-0.998,1.476-0.499,3.211-0.586,4.816c-0.78,17.419,0.716,36.704,0.781,54.623c8.873-0.586,18.136-3.492,27.897-4.816 c7.744-1.041,13.559-2.625,20.196-4.62c1.952-0.586,3.71-2.386,5.38-2.69c6.269-1.149,7.744,7.42,2.495,9.047 c-1.172,0.368-2.452,0.304-3.646,0.563c-2.906,0.673-6.248,2.3-9.436,2.712c0.108,5.098,0.867,12.344-0.76,16.335 c-0.564,0.282-1.15,0.521-2.126,0.391c-2.147-2.842-1.757-8.244-2.104-12.887c-1.345-0.324-4.144,1.021-5.574,0 c0.043,2.777,1.258,8.938,0.758,12.301c-0.216,1.519-1.041,4.035-3.471,3.471c-2.841-2.603-1.648-9.241-2.299-14.035 c-8.786,2.495-18.2,4.36-27.312,6.53c0.781,5.705-0.694,10.824-0.195,17.115c0.238,3.081,1.54,7.614,1.931,10.977 c0.391,3.472-1.215,9.523-5.207,6.529c-1.258-0.933-1.821-4.078-1.735-6.139c0.174-3.688,0.998-8.396,0.781-13.276 c-0.238-5.314-1.084-10.065-0.781-14.057c-6.313,0.759-12.799,2.972-19.806,3.666c-1.302,10.933,1.215,22.365,0.955,32.887 c2.343,2.234,1.149,6.204-0.955,6.725c-3.08,0.78-4.837-1.519-4.62-4.035c0.086-0.911,0.867-1.584,0.976-2.299 c0.087-0.564-0.151-0.955-0.195-1.54c-0.759-9.329,0.239-22.258-1.345-30.393c-9.566,1.975-21.129,3.623-32.323,4.621 c-0.477,0.91-0.477,2.321-1.344,2.885c-0.283,4.469-0.262,10.131,0,15.771c0.281,6.292-0.131,13.276,1.344,17.312 c0.564,1.497,2.278,2.603,1.736,4.989c-0.781,3.449-6.204,2.842-6.726-0.563c-0.194-1.259,0.065-3.623,0-5.381 c-0.498-10.65,0.305-24.188-0.976-34.058c-22.409,1.041-46.445,3.645-71.349,2.494c-8.091-0.368-16.096,0.369-23.862,0 c-7.116-0.325-13.862-0.498-20.956-0.954c-5.228-0.347-10.694-1.476-15.793-2.3c-5.141-0.846-9.827-2.126-14.035-3.861 c-8.417-3.471-15.597-9.609-17.506-18.46c-0.672,0.043-1.454,1.627-3.254,1.149C101.367,403.962,103.58,399.818,106.314,401.489 L106.314,401.489z M100.933,399.559c0.977-0.13,1.128,1.757-0.194,1.345C100.739,400.404,100.652,399.818,100.933,399.559 L100.933,399.559z M407.35,94.292L407.35,94.292c0.586,0.021,0.976-0.173,1.149-0.564c-0.585,0.13-0.368-0.542-0.977-0.391 C407.609,93.793,407.176,93.75,407.35,94.292L407.35,94.292z M311.162,239.138L311.162,239.138 c-2.582,1.475-2.104-3.385-4.23-3.645c-0.108,0.65-0.087,1.432-0.759,1.54c-0.478-0.563-0.955-1.106-0.781-2.321 c0.281-0.998,1.562-0.13,1.931-0.759c-0.998-1.692-2.039-3.362-3.666-4.426c-0.108,0.326,0.238,1.128-0.195,1.15 c-3.016-0.651-1.02-4.49-3.059-5.575c-0.043,0.629,0.434,0.933-0.391,0.955c-1.28-0.478-0.716-2.733-2.126-2.104 c-0.65-0.998-0.89-1.67-0.195-2.689c-0.478-0.89-1.822,0.694-2.495-0.391c0-1.41,0.435-2.43-0.39-3.471 c-0.478-0.542-0.5,1.106-1.149,0.391c-0.283-3.124-2.387-4.404-4.621-5.575c-0.499-0.564,0.087-1.193,0-1.93 c-1.932-1.346-2.777-3.732-4.404-5.38c-0.563-0.564-1.236-0.716-1.735-1.345c-0.434-0.564-0.606-1.345-0.976-1.931 c-4.079-6.399-9.893-11.822-14.795-17.701c-5.032-6.009-9.566-12.3-15.012-17.68c0.304,6.573-0.412,13.558-0.391,20.196 c0.021,2.864,1.54,10.934-0.759,11.541c-1.584,0.39-2.56-1.345-2.69-2.126c-0.217-1.237,0.998-2.43,1.149-3.839 c0.261-2.604-0.217-6.704-0.391-10.587c-0.195-4.36-0.542-9.067-0.759-12.69c-0.174-2.538,0.455-5.575,0-7.311 c-0.325-1.215-2.19-2.885-3.08-4.035c-1.172-1.519-2.473-3.038-3.275-4.035c-2.517-3.167-4.426-5.922-6.725-7.505 c0.043,10.716,0.846,25.359,1.908,35.381c0.108,0.933,0.563,1.692,0.391,2.516c-0.607,3.016-5.055,2.039-5.38-0.195 c-0.152-1.106,0.65-2.148,0.76-3.276c0.368-3.666-0.716-9.132-0.956-14.23c-0.238-5.466-0.368-12.3-0.759-17.701 c-0.217-2.842,0.803-6.053-0.976-8.266c-3.34,15.793-6.486,33.083-8.46,50.958c-2.343,21.39-6.14,42.432-7.116,64.646 c-0.217,4.794,0.976,9.566,0.585,14.036c-0.607,6.725-5.553,11.887-11.931,12.321c-5.64,0.368-9.61-2.756-11.541-5.597 c-1.02-1.497-1.106-3.449-2.321-5.185c-1.215-1.779-4.1-3.428-6.334-5.186c-2.278-1.8-4.339-3.97-6.161-5.597 c-4.252-3.796-9.046-6.898-13.471-10c-18.699-13.104-36.618-25.945-57.313-36.336c-10.413-5.25-21.042-10.174-32.127-14.816 c6.16,12.517,13.428,24.404,18.655,37.897c5.315,13.667,8.852,28.31,14.058,42.692c4.946,13.71,9.827,27.702,14.6,41.933 c4.859,14.448,8.568,29.308,12.126,44.623c13.103-7.788,26.964-14.838,42.519-20.196c0.303-3.927,0.151-8.309,0.194-12.495 c-6.291,1.041-14.122,4.815-21.173,6.529c-7.635,1.888-14.361-2.733-14.989-9.22c-0.694-6.963,3.688-10.239,8.265-12.321 c0.37-0.455,0.304-1.346,0.955-1.541c1.345,0.022,2.104-1.192,3.08,0c-0.087-2.43,4.1-1.865,5.38-1.735 c0.238-0.65-1.605-1.389-0.759-2.689c1.019-0.348,3.145-0.543,4.62-0.195c0.998,0.261,1.41,1.432,2.104,0.977 c0.303-0.326-1.149-0.521-0.759-1.54c0.109-0.608,0.933-0.478,1.345-0.781c-0.803-0.065-1.324-0.651-0.976-1.346 c3.058-1.192,2.711,1.866,4.057,2.69c-0.478-0.824-0.89-1.389,0-1.714c1.258-0.477,1.995,1.801,3.254,0.759 c0.325-0.563-0.608-1.583,0.195-2.299c2.408-0.955,4.794-0.934,6.356,0.563c1.54-0.043,1.258-1.93,2.299-2.494 c0.868,0,1.193,0.997,1.758,1.215c-0.022-0.348,0.13-0.759,0.217-1.063c0.412-0.108,0.694-0.021,0.889,0.174 c0.413-0.478,0.911-0.65,1.367,0.261c-0.021-0.868,0.239-1.454,0.976-1.541c1.063,0.456,1.431,1.324,3.081,0.76 c0.13-0.651-1.237-2.126,0.173-2.689c1.605,0,2.061,1.822,3.276,1.735c1.149-0.108,1.042-0.803,2.321-1.54 c1.02,0.498,2.148,1.214,2.885,0c-0.477-0.89-2.798,0.086-2.516-1.541c0.477-0.672,1.453-0.217,1.93,0.195 c-0.021-0.867,0.868-0.803,1.736-0.781c0.759,0.716,0.694,2.257,2.495,1.932c0.976-0.369,1.324-1.367,2.3-1.736 c-1.063-0.043-2.018,0.846-2.495-0.195c0.477-1.627,4.403-0.78,4.425,0.195c0.694-1.236,1.866-0.933,3.103-0.715 c0.39-0.348,1.172-0.283,1.627,0.13c1.324-0.174,2.43-1.129,3.167,0.195c-0.022-0.998,0.498-1.476,1.15-1.822 c-0.174-0.174-0.283-0.413-0.348-0.694c0.13-1.41,2.646-0.803,2.104,0.759c-0.151,0.087-0.325,0.174-0.369,0.369 c0.239,0.151,0.455,0.304,0.716,0.434c0.304-1.627,2.799-1.063,3.861-1.931c1.041-0.065,0.803,1.128,1.735,1.172 c0.26-0.499,0.217-1.302,1.149-1.172c1.02-0.108,0.933,1.215,1.909,0.586c1.063,0.238,0.673-0.998,1.541-0.955 c0.89-0.107,0.824,0.717,1.735,0.564c0.759,0.065,0.586-0.824,1.345-0.759c0.542,0.087,1.084,0.13,1.649,0.173 c0.194-0.434,0.802-0.456,1.474-0.391c0.043,0.131,0.131,0.261,0.195,0.391c2.604-0.108,5.358-0.629,8.026-0.954 c3.384-0.391,6.834-0.499,10.196-0.759c15.597-1.194,31.347-2.04,47.139-1.346c3.971,0.174,7.506,0.021,11.346,0.195 c15.056,0.672,29.156,2.473,41.348,4.99c6.313,1.301,12.234,2.364,17.896,4.425c2.646,0.976,5.271,2.321,8.069,3.08 c1.563,0.434,2.886,0.781,4.23,1.345c1.302,0.543,2.473,1.476,3.861,1.932c1.648,0.542,2.17,0.107,3.081,0.563 c3.449,1.758,1.778,7.723-2.712,6.747c-1.497-0.348-2.321-2.191-3.254-2.69c-0.998-0.542-2.494-0.629-3.861-1.172 c-1.129-0.455-2.256-1.235-3.449-1.713c-2.561-1.042-5.793-1.28-8.655-1.735c-5.966-0.934-12.431-2.04-18.461-2.321 c-13.125-0.564-25.902-0.325-37.898,0.194c-35.686,1.584-68.03,8.591-97.922,14.621c0.477,3.905,0.737,8.005,0.78,12.322 c24.469-4.815,52.78-8.287,82.13-9.632c40.219-1.822,82.347-0.369,115.039,7.896c-1.041-26.705-1.236-54.71,0-82.521 c0.585-13.342,0.368-26.661,0.954-39.829c0.76-17.203,1.627-34.188,2.885-50.588c-0.758-0.456-1.626-0.802-1.93-1.713 c1.519-1.909-1.041-1.757-0.76-3.471c0.195-1.236,1.692-1.432,3.081-0.585c-0.325-1.519-0.174-3.059,0.194-4.426 c-1.432-1.193-2.993-5.597,0.174-6.139c0.955,0.672-1.149,2.516,0.391,3.254c0.195-1.454,0.391-2.929,0.391-4.599 c-2.495-0.738-1.496-5.098,0.563-5.576c-1.908-0.715-1.735-2.733,0.195-3.275c0.391-1.735,0.174-4.078,0.586-5.771 c-1.648-1.28-2.494-6.03,0.586-6.356c-0.195-1.236,0.325-2.256,0-3.08c-3.405,3.059-5.879,7.158-8.851,10.977 c-2.864,3.645-5.988,7.202-8.851,10.955c-3.84,4.989-8.33,11.823-12.322,17.311c-2.018,2.777-4.229,4.946-4.62,8.46 c-1.063,9.784-0.5,20.022-0.955,30.392c-0.391,8.916-0.391,17.224,0,25.967c0.455,9.892,1.02,18.678,0.586,28.483 c-0.087,1.583-0.478,4.642,0,5.965c0.542,1.476,2.43,1.671,2.495,4.035c0.064,2.451-1.823,3.991-4.035,3.84 c-5.033-0.325-2.69-6.117-2.69-9.806c-0.043-14.079-1.215-29.438-0.195-45.208c0.044-0.65,0.195-1.258,0.195-1.93 c-0.065-11.107-0.911-22.843-1.54-32.692c-4.144,7.224-8.026,15.055-12.322,22.691c-1.409,2.517-3.622,5.033-4.229,7.506 c-0.347,1.41,0.021,3.276,0,5.011c-0.043,8.243-1.237,19.329-0.391,26.726c0.261,2.234,1.258,6.552-2.104,6.356 c-1.757-0.109-2.169-2.777-2.321-4.426c-0.542-6.898,0.868-15.945-0.759-22.518c-2.408,6.79-5.705,16.097-8.46,23.276 c-2.581,6.769-6.183,13.104-15.576,12.322c-2.517-0.217-3.904-1.302-6.552-1.735c-1.063-0.781-1.409-2.321-2.689-2.886 c-0.543,0.304-0.174,1.497-1.346,1.15c-1.063-1.215-1.843-2.842-1.539-4.426c-0.607,0.304-0.131,0.977-1.346,0.586 c-1.041-0.868,0.63-1.735-0.194-2.321c-0.934-0.13-1.107,1.215-1.932,0.586c-1.627-0.543-0.911-2.907-0.563-3.645 c-0.694,0.542-1.931,0-2.126-0.586c0.043-0.673,0.803-0.607,1.149-0.954c-0.585-0.131-0.868-1.563-1.345-1.172 C311.032,238.769,310.967,239.095,311.162,239.138L311.162,239.138z M195.168,206.446L195.168,206.446 c0.585,0.413,0.325,1.215,0.195,1.909c0.586-0.499,0.716-2.495,0.39-3.254C195.603,205.578,195.234,205.86,195.168,206.446 L195.168,206.446z M193.824,213.756L193.824,213.756c0.693-0.39,0.933,0.022,1.54,0.196c0-0.586,0-1.172,0-1.736 c-0.369,0-0.759,0-1.149,0C194.192,212.824,193.781,213.063,193.824,213.756L193.824,213.756z M192.869,221.631L192.869,221.631 c1.41-0.456,0.737,1.193,1.345,1.54c0.39-1.28,1.063-3.276,0.586-4.794C194.323,219.636,192.869,219.896,192.869,221.631 L192.869,221.631z M79.566,291.071L79.566,291.071c-0.022-1.497-0.304-2.755-0.955-3.646 C78.871,288.706,78.894,290.225,79.566,291.071L79.566,291.071z M81.106,296.473L81.106,296.473 c-0.065-0.586-0.108-1.172-0.563-1.367C80.759,295.539,80.563,296.364,81.106,296.473L81.106,296.473z M85.727,318.773 L85.727,318.773c1.063,0.086,1.605,0.716,2.126,1.345c-0.13-0.716-0.478-1.215-0.586-1.909c-0.651,0.065-1.085-0.087-1.541-0.195 C85.727,318.253,85.727,318.513,85.727,318.773L85.727,318.773z M194.604,328.969L194.604,328.969c-0.195,3.406,0.13,7.94,0,11.931 c3.254-0.649,6.334-1.474,9.415-2.32c-0.326-4.013,0.065-8.764-0.955-12.104C200.332,327.386,196.926,327.646,194.604,328.969 L194.604,328.969z M89.002,329.164L89.002,329.164c-0.152,0.521,0.369,0.391,0.39,0.76c0.586-0.108,0.976-0.413,0.955-1.149 C89.632,328.644,89.609,329.186,89.002,329.164L89.002,329.164z M181.133,332.245L181.133,332.245 c-0.26,3.97-0.194,8.265-0.194,12.494c2.495-0.78,5.076-1.453,7.505-2.299c-0.954-3.362-0.087-8.504-0.954-11.931 C185.363,331.073,183.107,331.507,181.133,332.245L181.133,332.245z M91.497,338.97L91.497,338.97 c0.629,0.043,0.933-0.217,0.954-0.76c-0.216-0.173-0.498-0.26-0.954-0.195C91.497,338.34,91.497,338.645,91.497,338.97 L91.497,338.97z M229.227,359.556L229.227,359.556c-14.513,4.145-27.985,9.09-41.933,14.622 c-9.241,3.666-19.741,8.807-28.461,14.035c-3.016,1.801-6.79,3.623-8.655,5.575c-0.912,0.933-1.627,2.776-2.517,4.23 c-1.019,1.648-2.168,3.297-2.104,4.815c0.043,1.367,2.083,5.142,3.254,5.771c1.063,0.564,3.406,0.499,5.401,0.76 c1.822,0.26,3.797,0.499,5.38,0.78c10.543,1.801,23.885,2.951,33.863,3.471c7.983,0.391,16.14-0.151,24.036-0.39 c24.491-0.781,47.399-2.343,70.025-4.621c15.38-1.54,30.739-1.822,45.577-4.23c-0.174-19.307-0.021-41.521-1.931-60.394 C293.938,344.979,260.639,350.597,229.227,359.556L229.227,359.556z M94.968,354.371L94.968,354.371c0.303,0,0.629,0,0.955,0 C96.14,353.244,94.881,353.569,94.968,354.371L94.968,354.371z M95.164,356.28L95.164,356.28c0.369,0,0.759,0,1.149,0 c-0.087-0.498-0.108-1.041-0.39-1.345C95.706,355.435,95.445,355.868,95.164,356.28L95.164,356.28z M97.853,364.177L97.853,364.177 c0-0.586,0.108-1.279-0.585-1.149C96.942,363.656,97.375,363.852,97.853,364.177L97.853,364.177z M97.462,366.281L97.462,366.281 c0.326,0,0.607,0.043,0.759,0.195c-0.064-0.499-0.13-2.018-0.369-1.735C98.005,365.544,97.462,365.652,97.462,366.281 L97.462,366.281z M97.072,369.947L97.072,369.947c0.369,0.348,0.781,0.629,1.541,0.564c0.065-0.239,0.238-1.931-0.391-2.104 C98.048,369.123,96.92,368.885,97.072,369.947L97.072,369.947z M93.449,403.767c-0.282,0.413-0.499,0.89-1.345,0.76 C91.454,403.464,93.016,402.726,93.449,403.767L93.449,403.767z M96.161,402.813c0.26,0.238,0.26,0.89,0,1.149 c-0.542-0.043-0.824-0.347-0.781-0.976C95.554,402.855,95.814,402.791,96.161,402.813L96.161,402.813z M92.104,397.216 c0.108,1.519-1.757,2.538-3.254,3.08C88.807,398.973,90.238,396.63,92.104,397.216L92.104,397.216z M88.07,395.502 c0.803-0.108,0.976,1.041,0.586,1.54c-0.261,0-0.521,0-0.782,0C87.484,396.608,87.723,395.74,88.07,395.502L88.07,395.502z M93.081,394.721c0.478,0.021,0.738,0.282,0.759,0.781c-0.368,0-0.238,0.521-0.759,0.368 C92.82,395.632,92.82,394.959,93.081,394.721L93.081,394.721z M86.725,393.57c0.303-0.064,0.326,0.175,0.586,0.196 c0.021,0.347-0.239,0.39-0.196,0.76C86.681,394.504,86.703,394.049,86.725,393.57L86.725,393.57z M94.621,392.421 c0.672-0.043,0.998,0.261,0.954,0.955c-0.217,0.151-0.521,0.261-0.954,0.194C94.448,393.007,94.448,392.985,94.621,392.421 L94.621,392.421z M87.874,389.341c0.889,0.151,0.695,1.367,0.977,2.104c0.715,0.13,2.017-0.348,1.909,0.586 c0.716-0.131,1.171-1.28,2.126-0.586c0.151,0.933-1.106,1.453-1.735,0.976c-0.542,0.543-1.042,1.128-1.541,1.735 c0.282,0.608,1.627,0.152,1.931,0.76c0.326,2.973-3.71,1.996-2.517-0.586c-0.282-0.325-1.15-0.13-1.344-0.563 C88.265,392.031,88.113,391.337,87.874,389.341L87.874,389.341z M94.621,388.191c0.26,0.108,0.456,0.281,0.563,0.564 c-0.26,0.693-0.542,1.366-1.345,1.539c-0.021-0.736-0.651-0.889-0.564-1.735C93.579,388.278,94.338,388.843,94.621,388.191 L94.621,388.191z M84.23,387.605c0.086,0.412-0.13,0.521-0.195,0.76c-0.261-0.065-0.304-0.325-0.586-0.369 C83.492,387.648,83.796,387.563,84.23,387.605L84.23,387.605z M85.379,385.306c0.261,0.065,0.304,0.326,0.586,0.369 c-0.108,0.803-0.304,1.497-0.586,2.126C84.772,387.454,84.859,385.653,85.379,385.306L85.379,385.306z M92.3,385.11 c0.499,0.586,0.629,1.541,0.586,2.69c-0.912-0.174-0.629-1.541-1.931-1.345C90.911,385.502,91.345,385.046,92.3,385.11L92.3,385.11 z M88.656,385.11c-0.196,0.586-0.456,1.085-1.15,1.149C87.636,385.632,87.81,385.046,88.656,385.11L88.656,385.11z M90.195,382.789 c0.261,0,0.499,0,0.759,0c0.347,0.37,0.152,1.28,0.196,1.932c-0.478,0.368-0.955,0.715-1.931,0.585 c-0.065-0.368-0.413-0.498-0.369-0.976C89.328,383.853,90.282,383.853,90.195,382.789L90.195,382.789z M87.874,381.64 c1.063,0.044,1.085,1.106,1.345,1.931c-0.173,0.087-0.347,0.174-0.369,0.391C87.375,384.048,87.332,382.573,87.874,381.64 L87.874,381.64z M90,379.341c0.955,0.455,1.41,2.711-0.391,2.494C89.566,380.989,89.263,379.97,90,379.341L90,379.341z M89.609,377.02c0,0.325,0,0.65,0,0.976c-0.846,0.456-1.583,0.174-2.495,0.76C86.92,377.063,88.308,376.108,89.609,377.02 L89.609,377.02z M91.541,374.72c0.26,0.564,0,0.954-0.39,1.345C90.218,376,90.521,374.46,91.541,374.72L91.541,374.72z M83.081,374.524c0.846-0.021,1.258,0.412,1.345,1.149c-0.5,0.543-0.869,1.193-1.736,1.346 C82.343,376.064,82.82,375.414,83.081,374.524L83.081,374.524z M86.529,365.869c0,0.455,0.325,0.563,0.195,1.149 c-0.347,0.521-1.389,0.521-1.735,0C84.729,365.782,85.684,365.436,86.529,365.869L86.529,365.869z M85.379,362.398 c-0.108,0.803-0.173,1.627-1.149,1.54c-0.087-0.151-0.173-0.326-0.39-0.369C83.947,362.811,84.599,361.855,85.379,362.398 L85.379,362.398z M86.725,352.983c-0.477,1.388-1.714,1.996-2.69,2.885C83.644,354.35,84.447,352.441,86.725,352.983 L86.725,352.983z M85.77,347.604c0.238,0.065,0.304,0.325,0.564,0.368c-0.521,1.454-0.043,1.497,0.39,2.713 c-0.217,0.151-0.521,0.238-0.955,0.173C85.315,349.772,84.49,348.385,85.77,347.604L85.77,347.604z M82.104,345.673 c0.585,0,0.563,1.366-0.196,1.149C81.496,346.432,81.887,345.977,82.104,345.673L82.104,345.673z M82.689,338.167 c0.673,1.453-0.13,4.165,0.391,6.161C81.778,343.764,80.911,338.731,82.689,338.167L82.689,338.167z M80.563,336.821 c0.109,0.999-0.347,1.433-1.345,1.346C78.676,337.234,79.761,336.41,80.563,336.821L80.563,336.821z M79.414,326.626 c0.086,0.998-1.735,0.651-1.541-0.195C78.633,326.518,79.045,325.997,79.414,326.626L79.414,326.626z M78.655,322.981 c-0.13,0.89-0.65,1.41-1.54,1.54C76.854,323.915,77.592,322.873,78.655,322.981L78.655,322.981z M72.494,290.854 c0.304-0.065,0.326,0.173,0.586,0.195c0.043,0.933-0.434,1.54,0,2.299C72.104,293.176,71.887,291.505,72.494,290.854 L72.494,290.854z M311.205,260.462c-0.281,1.063-0.13,1.627,0.195,2.495c-0.174,0.087-0.347,0.173-0.391,0.391 C309.404,263.521,309.427,259.421,311.205,260.462L311.205,260.462z M303.895,254.301c0.305,0.694,0.543,1.563,0,2.126 C302.029,256.904,301.77,253.716,303.895,254.301L303.895,254.301z M302.354,251.025c0.694,0.369,0.412,0.716,0.391,1.54 C301.616,252.848,301.899,251.286,302.354,251.025L302.354,251.025z M301.01,247.186c-0.65-0.043-0.998-0.412-0.955-1.149 C300.554,245.559,301.639,246.535,301.01,247.186L301.01,247.186z M304.459,246.622c-0.217-0.044-0.326,0.043-0.369,0.173 c-0.629-0.021-0.846-0.434-0.781-1.149C303.916,245.363,304.632,245.624,304.459,246.622L304.459,246.622z M298.319,242.761 c0.196,0,0.369,0,0.564,0c0.064,0.499-0.065,0.824-0.564,0.78C298.319,243.281,298.319,243.021,298.319,242.761L298.319,242.761z M291.769,241.415c-0.608,0.218-0.499,0.087-0.955-0.195C290.835,240.656,291.963,240.722,291.769,241.415L291.769,241.415z M187.707,240.852c-0.39,0.412-0.846,0.021-1.149-0.195C186.557,240.07,187.923,240.092,187.707,240.852L187.707,240.852z M299.859,239.68c0.5,0,1.02,0,1.541,0c0.347,0.391,0.607,1.563,0.173,2.126C300.294,241.827,299.317,240.895,299.859,239.68 L299.859,239.68z M295.63,237.576c-0.195,1.995-0.998,3.362-3.276,3.275C292.723,239.138,293.721,237.12,295.63,237.576 L295.63,237.576z M289.078,236.23c0.108,0.629-0.13,0.89-0.194,1.346c-0.955,0.13-1.259-0.412-1.15-1.346 C287.994,235.949,288.818,235.949,289.078,236.23L289.078,236.23z M287.148,233.541c-0.218-0.044-0.326,0.043-0.37,0.173 C284.133,232.825,288.146,230.764,287.148,233.541L287.148,233.541z M186.361,224.885c0.086,1.063-1.692,0.868-2.104,0.369 C184.04,224.126,186.058,224.386,186.361,224.885L186.361,224.885z M187.707,219.115c-0.022,0.478-0.283,0.738-0.759,0.759 c-0.087-0.173-0.174-0.347-0.39-0.391C186.578,219.006,187.207,219.115,187.707,219.115L187.707,219.115z M186.557,219.115 c-2.126,0.478-2.929-2.212-1.736-3.276C186.166,216.165,185.732,218.269,186.557,219.115L186.557,219.115z M180.2,210.069 c0.261,0.065,0.304,0.325,0.586,0.391c-0.282,0.716-1.866,0.998-2.495,0.759C178.313,210.221,179.68,210.567,180.2,210.069 L180.2,210.069z M187.511,207.943c0.412,0.173,0.586,0.564,0.586,1.15C187.511,209.114,187.533,208.528,187.511,207.943 L187.511,207.943z M185.971,208.333c-0.543,0.195-1.519,0.65-2.104,0.195C183.563,207.097,186.339,206.554,185.971,208.333 L185.971,208.333z M401.796,205.644c0,0.455,0.325,0.563,0.195,1.149c-0.347,0.521-1.584,0.521-1.931,0 C399.735,205.47,400.929,205.209,401.796,205.644L401.796,205.644z M404.877,202.173c-0.065,0.629-0.977,1.041-1.541,0.585 C403.098,201.457,404.551,201.392,404.877,202.173L404.877,202.173z M189.637,201.218c-0.672,1.584-1.844,3.645-3.666,3.471 C186.058,203.235,188.162,201.261,189.637,201.218L189.637,201.218z M185.407,200.632c0.781,0,0.152,1.388,0.564,1.735 c-0.217,0.217-0.673,0.217-1.15,0.195C184.343,201.717,185.016,201.175,185.407,200.632L185.407,200.632z M404.877,196.033 c0.13,1.106-2.387,1.02-2.495,0.174C402.316,195.187,404.725,195.144,404.877,196.033L404.877,196.033z M402.945,190.437 c0.109,0.694-0.151,0.998-0.563,1.171C400.733,191.564,401.709,189.525,402.945,190.437L402.945,190.437z M187.142,189.482 c0,0.781-0.716,0.824-1.54,0.781c-0.239-0.238-0.217-0.694-0.195-1.171C185.884,188.723,187.077,188.853,187.142,189.482 L187.142,189.482z M404.682,183.516c0,1.302,1.496,1.063,1.149,2.69C403.792,188.527,401.622,183.646,404.682,183.516 L404.682,183.516z M189.637,183.516c0.586,0.694,1.693,0.868,2.3,1.541C191.48,187.117,188.443,185.36,189.637,183.516 L189.637,183.516z M186.751,180.067c0.782,0.216-0.043,0.759-0.585,0.759c0-0.196,0-0.391,0-0.586 C186.448,180.262,186.708,180.284,186.751,180.067L186.751,180.067z M405.831,178.527c0,0.434,0,0.889,0,1.345 c-1.106,0.889-2.668,0-2.495-1.54C403.857,177.312,405.245,178.006,405.831,178.527L405.831,178.527z M404.877,175.642 c-0.195,0-0.152,0.239-0.195,0.369c-2.82,1.301-2.43-3.384-0.955-3.254C404.572,172.822,404.464,174.774,404.877,175.642 L404.877,175.642z M408.152,171.976c-0.413,0.173-0.651,0.499-1.346,0.391C405.354,170.913,408.542,169.481,408.152,171.976 L408.152,171.976z M187.901,170.066c0.607,0.043,0.499,1.779,0.195,2.104C187.207,171.976,187.75,170.739,187.901,170.066 L187.901,170.066z M26.895,164.101c0.673,0.152,1.28,0.391,1.541,0.955c0.151,0.521-0.369,0.39-0.369,0.759 C27.004,165.858,26.049,164.817,26.895,164.101L26.895,164.101z M189.442,161.021c0.065,1.128-1.822,0.824-2.3,0.391 C186.794,160.088,189.312,160.153,189.442,161.021L189.442,161.021z M31.147,161.021c-0.261,0.065-0.304,0.326-0.586,0.391 c-0.564,0.043-0.672-0.369-0.955-0.586C29.52,159.611,31.472,159.523,31.147,161.021L31.147,161.021z M408.521,159.676 c-0.304,1.497,0.803,2.82-1.149,3.08c-0.369-0.282-0.673-0.607-0.954-0.976C406.655,160.695,407.566,159.394,408.521,159.676 L408.521,159.676z M189.246,151.389c0.109,0.824-0.65,0.781-1.149,0.977C188.206,151.779,188.531,151.367,189.246,151.389 L189.246,151.389z M412.188,83.685c0.954-0.108,1.41,1.063,0.954,1.735C412.188,85.528,411.753,84.379,412.188,83.685 L412.188,83.685z M416.027,77.719c0.433,0.89,0.954,2.213-0.196,2.712C413.814,80.669,413.337,77.068,416.027,77.719 L416.027,77.719z M428.349,69.649c-0.564,0.39-0.737,0.629-1.54,0.39C425.051,68.174,428.869,66.764,428.349,69.649L428.349,69.649 z M417.957,68.304c-0.021,1.063-1.172,0.737-1.735,0.39c0-0.195,0-0.39,0-0.585C416.721,67.675,417.588,68.022,417.957,68.304 L417.957,68.304z" fill-rule="evenodd"/></g></svg>