<?xml version="1.0" encoding="UTF-8" standalone="no"?><svg xmlns="http://www.w3.org/2000/svg" xmlns:xlink="http://www.w3.org/1999/xlink" data-name="Слой 1" fill="#545454" height="1454" preserveAspectRatio="xMidYMid meet" version="1" viewBox="-0.0 0.0 1126.3 1454.0" width="1126.3" zoomAndPan="magnify"><g id="change1_1"><path d="M1005.78,561.89V442.6c0-244-198.59-442.6-442.59-442.6S120.51,198.55,120.51,442.6V561.89C53.69,563.7,0,618.14,0,685.4v644.74A123.85,123.85,0,0,0,123.84,1454h878.63a123.86,123.86,0,0,0,123.86-123.85V685.4C1126.33,618.13,1072.61,563.68,1005.78,561.89ZM664.47,918.67c-.55,3.84-2.7,12.6-2.9,13.27-7.56,26.2-25.63,47.71-49.1,60.8l39.76,169.5a23.57,23.57,0,0,1-21.85,30.94H498.64a23.56,23.56,0,0,1-21.84-30.94l37.06-169.5c-23.48-13.09-41.55-34.6-49.1-60.8-.2-.67-2.36-9.43-2.91-13.27a98.52,98.52,0,0,1-1.05-14.27A102.36,102.36,0,0,1,563.16,802h0A102.36,102.36,0,0,1,665.52,904.4,98.52,98.52,0,0,1,664.47,918.67ZM854.65,561.55h-583V442.6c0-160.77,130.73-291.54,291.54-291.54S854.65,281.83,854.65,442.6Z"/></g></svg>